# Blender v2.90.1 OBJ File: 'Feather.blend'
# www.blender.org
mtllib markerfeather.mtl
o Feather_Plane.001
v -0.398182 -0.662899 0.007351
v 0.425484 -0.513788 0.007351
v -0.349843 2.620689 0.007351
v 0.355733 2.622527 0.007351
v -0.088884 3.162985 0.007351
v 0.112765 3.155427 0.007351
v -0.696414 0.297142 0.007351
v 0.596321 0.415949 0.007351
v 0.059141 -0.896826 0.007351
v -0.005468 2.660639 0.007351
v 0.014025 3.243962 0.007351
v -0.046852 0.298448 0.007351
v -0.582886 -0.316176 0.007351
v 0.264940 -0.764418 0.007351
v 0.536975 1.619804 0.007351
v -0.168245 2.649807 0.007351
v -0.030630 3.224482 0.007351
v -0.182789 3.025671 0.007351
v 0.206098 3.015017 0.007351
v -0.597478 1.546754 0.007351
v 0.529657 -0.173875 0.007351
v -0.370798 0.287096 0.007351
v -0.172427 -0.856956 0.007351
v 0.161641 2.654026 0.007351
v 0.056934 3.220628 0.007351
v 0.275338 0.347780 0.007351
v -0.006480 -0.386024 0.007351
v 0.008255 3.081643 0.007351
v -0.035041 1.584165 0.007351
v 0.244914 1.608113 0.007351
v 0.094542 3.063248 0.007351
v 0.266945 -0.306391 0.007351
v -0.292224 -0.379582 0.007351
v -0.076601 3.067272 0.007351
v -0.311627 1.567989 0.007351
v -0.696415 0.297139 -0.005058
v -0.582886 -0.316176 -0.005086
v -0.398182 -0.662899 -0.005086
v 0.059141 -0.896826 -0.005086
v 0.264940 -0.764418 -0.005086
v 0.425484 -0.513788 -0.005086
v 0.596322 0.415942 -0.004957
v 0.536982 1.619781 -0.002755
v 0.355745 2.622504 0.000598
v -0.005469 2.660614 0.001156
v -0.168253 2.649783 0.000983
v -0.349857 2.620666 0.000544
v 0.014025 3.243962 0.004014
v -0.030635 3.224480 0.003931
v -0.088894 3.162977 0.003551
v -0.182802 3.025656 0.002627
v 0.206111 3.015002 0.002600
v 0.112775 3.155418 0.003542
v -0.597486 1.546732 -0.003007
v 0.529657 -0.173875 -0.005086
v -0.046852 0.298442 -0.005006
v -0.370798 0.287091 -0.005031
v -0.172427 -0.856956 -0.005086
v 0.161647 2.654001 0.001044
v 0.056939 3.220625 0.003930
v 0.275339 0.347774 -0.004975
v -0.006480 -0.386024 -0.005086
v 0.008254 3.081629 0.003376
v -0.035042 1.584141 -0.002634
v 0.244918 1.608089 -0.002611
v 0.094549 3.063232 0.003173
v 0.266945 -0.306391 -0.005086
v -0.292224 -0.379582 -0.005086
v -0.076609 3.067257 0.003169
v -0.311632 1.567965 -0.002758
v 0.089222 -1.318408 0.014018
v -0.064826 0.610000 0.017872
v 0.089222 -1.318408 -0.013492
v -0.064826 0.610000 -0.017347
v 0.134944 -1.316105 0.013996
v -0.007163 0.627135 0.017973
v 0.134944 -1.316105 -0.013470
v 0.012641 0.650303 -0.014251
v -0.012757 2.809063 0.004961
v -0.012757 2.809063 -0.004436
v 0.002901 2.809366 -0.004434
v 0.002901 2.809366 0.004959
v 0.031457 -0.985354 0.019345
v 0.031457 -0.985354 -0.018819
v 0.094449 -0.979011 -0.018847
v 0.094449 -0.979011 0.019372
v 0.003975 2.582936 -0.007473
v 0.003975 2.582936 0.007999
v -0.021604 2.580703 0.008002
v -0.021604 2.580703 -0.007476
v 0.085516 -1.326959 0.000263
v -0.032373 -0.425501 0.019526
v -0.075671 0.606737 0.000263
v 0.072273 -1.248505 -0.017589
v 0.113266 -1.325646 -0.016414
v -0.015997 0.641943 -0.020791
v 0.131494 -1.244691 -0.017560
v 0.141016 -1.324334 0.000263
v 0.003618 0.630298 0.000263
v 0.131494 -1.244691 0.018086
v 0.113266 -1.325646 0.016940
v -0.035956 0.618633 0.024544
v -0.014354 2.814625 0.000263
v -0.004861 2.814803 -0.005431
v 0.004636 2.814977 0.000263
v -0.004860 2.814803 0.005957
v 0.004788 2.765789 -0.005931
v -0.002864 1.925500 0.012440
v -0.015826 2.765200 0.006460
v -0.042748 1.915707 -0.011897
v 0.072273 -1.248505 0.018115
v -0.032373 -0.425501 -0.019000
v 0.031037 -0.415689 -0.019120
v 0.031037 -0.415689 0.019645
v 0.062953 -0.982182 0.026519
v 0.106260 -0.977822 0.000263
v 0.062953 -0.982182 -0.025994
v 0.019646 -0.986543 0.000263
v 0.010502 1.942777 -0.009670
v 0.004788 2.765789 0.006457
v -0.042748 1.915707 0.012423
v -0.015826 2.765200 -0.005935
v -0.008800 2.581884 -0.010373
v -0.008800 2.581884 0.010899
v -0.026415 2.580233 0.000263
v 0.008763 2.583304 0.000263
v -0.044255 -0.427339 0.000263
v -0.000674 -0.420598 -0.026306
v 0.042934 -0.413847 0.000263
v -0.000674 -0.420598 0.026831
v 0.115749 -1.343253 0.000263
v 0.008663 2.766461 0.000263
v -0.004721 2.826493 0.000263
v -0.019683 2.765655 0.000263
v -0.005510 2.766091 0.008777
v -0.005510 2.766091 -0.008252
v 0.102000 -1.247425 0.024791
v 0.142719 -1.244821 0.000263
v 0.102000 -1.247425 -0.024266
v 0.061281 -1.250029 0.000263
v -0.009194 1.938251 -0.014178
v -0.022759 1.920710 0.016993
v -0.050268 1.913787 0.000263
v 0.004577 1.927254 0.000263
vt 0.061835 0.290289
vt 0.196133 0.301714
vt 0.196133 0.498845
vt 0.061835 0.491133
vt 0.317154 0.318103
vt 0.317154 0.510721
vt 0.317154 0.701869
vt 0.196133 0.695645
vt 0.061835 0.691937
vt 0.196133 0.835330
vt 0.061835 0.840541
vt 0.317154 0.823163
vt 0.317154 0.891540
vt 0.196133 0.936282
vt 0.061835 0.954350
vt 0.061835 0.027605
vt 0.196133 0.058472
vt 0.196133 0.161024
vt 0.061835 0.141570
vt 0.317154 0.115536
vt 0.317154 0.192253
vt 0.317154 0.077255
vt 0.061835 0.035153
vt 0.196133 0.141312
vt 0.317154 0.153778
vt 0.196133 0.287135
vt 0.317154 0.288943
vt 0.317154 0.695432
vt 0.196133 0.692425
vt 0.196133 0.835102
vt 0.317154 0.822592
vt 0.196133 0.937524
vt 0.317154 0.893001
vt 0.196133 0.490360
vt 0.317154 0.493751
vt 0.061835 0.290289
vt 0.061835 0.491133
vt 0.196133 0.498845
vt 0.196133 0.301714
vt 0.317154 0.510721
vt 0.317154 0.318103
vt 0.196133 0.695645
vt 0.317154 0.701869
vt 0.061835 0.691937
vt 0.061835 0.840541
vt 0.196133 0.835330
vt 0.317154 0.823163
vt 0.196133 0.936282
vt 0.317154 0.891540
vt 0.061835 0.954350
vt 0.061835 0.027605
vt 0.061835 0.141570
vt 0.196133 0.161024
vt 0.196133 0.058472
vt 0.317154 0.192253
vt 0.317154 0.115536
vt 0.317154 0.077255
vt 0.317154 0.153778
vt 0.196133 0.141312
vt 0.061835 0.035153
vt 0.196133 0.287135
vt 0.317154 0.288943
vt 0.317154 0.695432
vt 0.317154 0.822592
vt 0.196133 0.835102
vt 0.196133 0.692425
vt 0.196133 0.937524
vt 0.317154 0.893001
vt 0.317154 0.493751
vt 0.196133 0.490360
vt 0.847147 0.552736
vt 0.832900 0.592382
vt 0.830248 0.592252
vt 0.844511 0.552651
vt 0.825656 0.665713
vt 0.823236 0.665482
vt 0.825656 0.665713
vt 0.832900 0.592382
vt 0.847147 0.552736
vt 0.839976 0.592729
vt 0.854177 0.552960
vt 0.836555 0.667975
vt 0.842947 0.668567
vt 0.847053 0.593077
vt 0.861207 0.553185
vt 0.849709 0.593207
vt 0.863844 0.553269
vt 0.840934 0.667150
vt 0.838527 0.666926
vt 0.847053 0.593077
vt 0.861207 0.553185
vt 0.839976 0.592729
vt 0.854177 0.552960
vt 0.832100 0.666324
vt 0.860041 0.529150
vt 0.865407 0.528637
vt 0.865962 0.527390
vt 0.859214 0.528544
vt 0.870246 0.529313
vt 0.871601 0.528730
vt 0.870246 0.529313
vt 0.865407 0.528637
vt 0.860041 0.529150
vt 0.841013 0.805429
vt 0.842082 0.805455
vt 0.842059 0.818425
vt 0.841195 0.818378
vt 0.841013 0.805429
vt 0.841195 0.818378
vt 0.840773 0.821464
vt 0.841161 0.821861
vt 0.840773 0.821464
vt 0.839041 0.821849
vt 0.839072 0.822677
vt 0.837279 0.821442
vt 0.836922 0.821836
vt 0.837279 0.821442
vt 0.839041 0.821849
vt 0.835304 0.805271
vt 0.834230 0.805237
vt 0.835732 0.818368
vt 0.836594 0.818336
vt 0.835304 0.805271
vt 0.836594 0.818336
vt 0.838162 0.805354
vt 0.838896 0.818399
vt 0.838162 0.805354
vt 0.838896 0.818399
vt 0.869476 0.534370
vt 0.862893 0.534177
vt 0.856258 0.534100
vt 0.869476 0.534370
vt 0.871982 0.534361
vt 0.856258 0.534100
vt 0.862893 0.534177
vt 0.853804 0.533992
vt 0.838074 0.759775
vt 0.842470 0.760095
vt 0.830584 0.758178
vt 0.835046 0.758532
vt 0.830584 0.758178
vt 0.839487 0.758872
vt 0.828906 0.758042
vt 0.841148 0.758996
vn 0.0000 0.0000 1.0000
vn 0.7240 -0.0229 0.6894
vn 0.7162 0.0821 0.6930
vn 0.6999 0.1950 0.6871
vn 0.6491 0.3344 0.6832
vn 0.5743 0.4343 0.6939
vn 0.4677 0.5781 0.6686
vn 0.0340 0.7836 0.6203
vn 0.1541 -0.7579 0.6338
vn 0.5304 -0.5293 0.6621
vn 0.6672 -0.3088 0.6778
vn 0.7115 -0.1479 0.6869
vn -0.5810 -0.4652 0.6678
vn -0.3232 -0.6861 0.6517
vn -0.6971 -0.2436 0.6743
vn -0.7332 -0.0381 0.6789
vn -0.6901 0.2204 0.6893
vn -0.6410 0.3467 0.6847
vn -0.4289 0.6114 0.6650
vn -0.5632 0.4547 0.6899
vn -0.7143 0.1101 0.6910
vn 0.0000 0.0009 -1.0000
vn 0.0000 0.0026 -1.0000
vn -0.0005 0.0026 -1.0000
vn -0.0001 0.0010 -1.0000
vn 0.7161 0.0837 -0.6930
vn 0.7239 -0.0222 -0.6896
vn -0.0011 0.0041 -1.0000
vn 0.6995 0.1972 -0.6868
vn 0.0001 0.0043 -1.0000
vn 0.0001 0.0046 -1.0000
vn -0.0016 0.0047 -1.0000
vn 0.6482 0.3371 -0.6827
vn 0.4670 0.5803 -0.6672
vn 0.5729 0.4374 -0.6931
vn 0.0340 0.7849 -0.6186
vn 0.1541 -0.7579 -0.6338
vn 0.0000 0.0000 -1.0000
vn 0.0000 0.0001 -1.0000
vn 0.5304 -0.5293 -0.6621
vn 0.7115 -0.1478 -0.6869
vn 0.6672 -0.3088 -0.6778
vn -0.5810 -0.4652 -0.6678
vn -0.6971 -0.2436 -0.6743
vn -0.3232 -0.6861 -0.6517
vn 0.0002 0.0009 -1.0000
vn -0.7331 -0.0376 -0.6791
vn -0.6896 0.2226 -0.6891
vn -0.6401 0.3494 -0.6842
vn 0.0019 0.0046 -1.0000
vn 0.0013 0.0040 -1.0000
vn -0.4281 0.6135 -0.6636
vn -0.5618 0.4576 -0.6891
vn -0.7142 0.1115 -0.6910
vn 0.0005 0.0025 -1.0000
vn -0.5775 -0.0797 0.8125
vn -0.5855 -0.0417 0.8096
vn -0.9973 -0.0731 0.0000
vn -0.9909 -0.1346 0.0000
vn -0.5867 -0.0014 0.8097
vn -0.9999 -0.0078 0.0000
vn -0.5410 -0.0004 -0.8410
vn -0.5681 -0.0406 -0.8219
vn -0.5775 -0.0797 -0.8125
vn 0.0168 0.0020 -0.9998
vn -0.0026 -0.0039 -1.0000
vn 0.0643 0.0052 -0.9979
vn 0.8823 0.0092 -0.4706
vn 0.6532 0.0448 -0.7558
vn 0.5730 0.0700 -0.8166
vn 0.9891 0.0686 0.1303
vn 0.9923 0.1235 0.0000
vn 0.9510 0.0185 0.3085
vn 0.5789 0.0125 0.8153
vn 0.5722 0.0433 0.8189
vn 0.5730 0.0700 0.8166
vn -0.0071 0.0007 1.0000
vn -0.0026 -0.0039 1.0000
vn -0.0055 0.0048 1.0000
vn -0.5159 -0.3732 -0.7710
vn 0.0275 -0.4806 -0.8765
vn 0.0831 -0.9965 0.0000
vn -0.7262 -0.6875 0.0000
vn 0.5768 -0.2389 -0.7811
vn 0.8510 -0.5251 0.0000
vn 0.5768 -0.2389 0.7811
vn 0.0275 -0.4806 0.8765
vn -0.5159 -0.3732 0.7710
vn 0.5816 0.0018 0.8134
vn 0.9872 -0.0007 0.1595
vn 0.9992 0.0390 0.0000
vn 0.5859 0.0314 0.8097
vn 0.6894 0.0046 -0.7243
vn 0.5859 0.0314 -0.8097
vn 0.5768 0.1533 -0.8023
vn 0.8717 0.4899 0.0000
vn 0.5768 0.1533 0.8023
vn -0.0058 0.3402 -0.9403
vn 0.0012 1.0000 0.0000
vn -0.5766 0.1646 -0.8003
vn -0.8679 0.4966 0.0000
vn -0.5765 0.1646 0.8003
vn -0.0058 0.3402 0.9403
vn -0.5570 0.0231 -0.8302
vn -0.9993 0.0361 0.0000
vn -0.9976 0.0686 0.0000
vn -0.5860 0.0495 -0.8088
vn -0.5813 0.0244 0.8133
vn -0.5860 0.0495 0.8088
vn -0.0006 0.0103 0.9999
vn -0.0001 0.0324 0.9995
vn 0.0242 0.0093 -0.9996
vn -0.0001 0.0324 -0.9995
vn 0.5884 0.0238 0.8082
vn 0.0041 -0.0477 0.9988
vn -0.5762 -0.1453 0.8043
vn 0.5884 0.0238 -0.8082
vn 0.9980 0.0633 0.0000
vn -0.5762 -0.1453 -0.8043
vn 0.0041 -0.0477 -0.9988
vn -0.9756 -0.2196 0.0000
vn 0.0609 0.0060 -0.9981
vn 0.8250 0.0042 -0.5650
vn -0.5264 0.0171 -0.8501
vn -0.0025 0.0077 0.9999
vn -0.5849 0.0187 0.8109
vn 0.5826 0.0006 0.8127
vn -0.9996 0.0269 0.0000
vn 0.8771 -0.0016 0.4803
usemtl Owl
s 1
f 12/1/1 26/2/1 30/3/1 29/4/1
f 26/2/1 8/5/2 15/6/3 30/3/1
f 30/3/1 15/6/3 4/7/4 24/8/1
f 29/4/1 30/3/1 24/8/1 10/9/1
f 10/9/1 24/8/1 31/10/1 28/11/1
f 24/8/1 4/7/4 19/12/5 31/10/1
f 31/10/1 19/12/5 6/13/6 25/14/7
f 28/11/1 31/10/1 25/14/7 11/15/8
f 9/16/9 14/17/10 32/18/1 27/19/1
f 14/17/10 2/20/11 21/21/12 32/18/1
f 32/18/1 21/21/12 8/5/2 26/2/1
f 27/19/1 32/18/1 26/2/1 12/1/1
f 1/22/13 23/23/14 33/24/1 13/25/15
f 23/23/14 9/16/9 27/19/1 33/24/1
f 33/24/1 27/19/1 12/1/1 22/26/1
f 13/25/15 33/24/1 22/26/1 7/27/16
f 3/28/17 16/29/1 34/30/1 18/31/18
f 16/29/1 10/9/1 28/11/1 34/30/1
f 34/30/1 28/11/1 11/15/8 17/32/19
f 18/31/18 34/30/1 17/32/19 5/33/20
f 7/27/16 22/26/1 35/34/1 20/35/21
f 22/26/1 12/1/1 29/4/1 35/34/1
f 35/34/1 29/4/1 10/9/1 16/29/1
f 20/35/21 35/34/1 16/29/1 3/28/17
f 56/36/22 64/37/23 65/38/24 61/39/25
f 61/39/25 65/38/24 43/40/26 42/41/27
f 65/38/24 59/42/28 44/43/29 43/40/26
f 64/37/23 45/44/30 59/42/28 65/38/24
f 45/44/30 63/45/31 66/46/32 59/42/28
f 59/42/28 66/46/32 52/47/33 44/43/29
f 66/46/32 60/48/34 53/49/35 52/47/33
f 63/45/31 48/50/36 60/48/34 66/46/32
f 39/51/37 62/52/38 67/53/39 40/54/40
f 40/54/40 67/53/39 55/55/41 41/56/42
f 67/53/39 61/39/25 42/41/27 55/55/41
f 62/52/38 56/36/22 61/39/25 67/53/39
f 38/57/43 37/58/44 68/59/38 58/60/45
f 58/60/45 68/59/38 62/52/38 39/51/37
f 68/59/38 57/61/46 56/36/22 62/52/38
f 37/58/44 36/62/47 57/61/46 68/59/38
f 47/63/48 51/64/49 69/65/50 46/66/51
f 46/66/51 69/65/50 63/45/31 45/44/30
f 69/65/50 49/67/52 48/50/36 63/45/31
f 51/64/49 50/68/53 49/67/52 69/65/50
f 36/62/47 54/69/54 70/70/55 57/61/46
f 57/61/46 70/70/55 64/37/23 56/36/22
f 70/70/55 46/66/51 45/44/30 64/37/23
f 54/69/54 47/63/48 46/66/51 70/70/55
f 17/32/19 49/67/52 50/68/53 5/33/20
f 6/13/6 53/49/35 60/48/34 25/14/7
f 9/16/9 39/51/37 40/54/40 14/17/10
f 21/21/12 55/55/41 42/41/27 8/5/2
f 5/33/20 50/68/53 51/64/49 18/31/18
f 25/14/7 60/48/34 48/50/36 11/15/8
f 14/17/10 40/54/40 41/56/42 2/20/11
f 18/31/18 51/64/49 47/63/48 3/28/17
f 8/5/2 42/41/27 43/40/26 15/6/3
f 4/7/4 44/43/29 52/47/33 19/12/5
f 15/6/3 43/40/26 44/43/29 4/7/4
f 1/22/13 38/57/43 58/60/45 23/23/14
f 19/12/5 52/47/33 53/49/35 6/13/6
f 23/23/14 58/60/45 39/51/37 9/16/9
f 3/28/17 47/63/48 54/69/54 20/35/21
f 7/27/16 36/62/47 37/58/44 13/25/15
f 20/35/21 54/69/54 36/62/47 7/27/16
f 11/15/8 48/50/36 49/67/52 17/32/19
f 13/25/15 37/58/44 38/57/43 1/22/13
f 2/20/11 41/56/42 55/55/41 21/21/12
f 83/71/56 92/72/57 127/73/58 118/74/59
f 92/72/57 72/75/60 93/76/61 127/73/58
f 127/73/58 93/76/61 74/77/62 112/78/63
f 118/74/59 127/73/58 112/78/63 84/79/64
f 84/79/64 112/78/63 128/80/65 117/81/66
f 112/78/63 74/77/62 96/82/67 128/80/65
f 128/80/65 96/82/67 78/83/68 113/84/69
f 117/81/66 128/80/65 113/84/69 85/85/70
f 85/85/70 113/84/69 129/86/71 116/87/72
f 113/84/69 78/83/68 99/88/73 129/86/71
f 129/86/71 99/88/73 76/89/74 114/90/75
f 116/87/72 129/86/71 114/90/75 86/91/76
f 86/91/76 114/90/75 130/92/77 115/93/78
f 114/90/75 76/89/74 102/94/79 130/92/77
f 130/92/77 102/94/79 72/75/60 92/72/57
f 115/93/78 130/92/77 92/72/57 83/71/56
f 73/95/80 95/96/81 131/97/82 91/98/83
f 95/96/81 77/99/84 98/100/85 131/97/82
f 131/97/82 98/100/85 75/101/86 101/102/87
f 91/98/83 131/97/82 101/102/87 71/103/88
f 88/104/89 126/105/90 132/106/91 120/107/92
f 126/105/90 87/108/93 107/109/94 132/106/91
f 132/106/91 107/109/94 81/110/95 105/111/96
f 120/107/92 132/106/91 105/111/96 82/112/97
f 81/110/95 104/113/98 133/114/99 105/111/96
f 104/113/98 80/115/100 103/116/101 133/114/99
f 133/114/99 103/116/101 79/117/102 106/118/103
f 105/111/96 133/114/99 106/118/103 82/112/97
f 90/119/104 125/120/105 134/121/106 122/122/107
f 125/120/105 89/123/108 109/124/109 134/121/106
f 134/121/106 109/124/109 79/117/102 103/116/101
f 122/122/107 134/121/106 103/116/101 80/115/100
f 89/123/108 124/125/110 135/126/111 109/124/109
f 124/125/110 88/104/89 120/107/92 135/126/111
f 135/126/111 120/107/92 82/112/97 106/118/103
f 109/124/109 135/126/111 106/118/103 79/117/102
f 87/108/93 123/127/112 136/128/113 107/109/94
f 123/127/112 90/119/104 122/122/107 136/128/113
f 136/128/113 122/122/107 80/115/100 104/113/98
f 107/109/94 136/128/113 104/113/98 81/110/95
f 75/101/86 100/129/114 137/130/115 101/102/87
f 100/129/114 86/91/76 115/93/78 137/130/115
f 137/130/115 115/93/78 83/71/56 111/131/116
f 101/102/87 137/130/115 111/131/116 71/103/88
f 77/99/84 97/132/117 138/133/118 98/100/85
f 97/132/117 85/85/70 116/87/72 138/133/118
f 138/133/118 116/87/72 86/91/76 100/129/114
f 98/100/85 138/133/118 100/129/114 75/101/86
f 73/95/80 94/134/119 139/135/120 95/96/81
f 94/134/119 84/79/64 117/81/66 139/135/120
f 139/135/120 117/81/66 85/85/70 97/132/117
f 95/96/81 139/135/120 97/132/117 77/99/84
f 71/103/88 111/131/116 140/136/121 91/98/83
f 111/131/116 83/71/56 118/74/59 140/136/121
f 140/136/121 118/74/59 84/79/64 94/134/119
f 91/98/83 140/136/121 94/134/119 73/95/80
f 78/83/68 96/82/67 141/137/122 119/138/123
f 96/82/67 74/77/62 110/139/124 141/137/122
f 141/137/122 110/139/124 90/119/104 123/127/112
f 119/138/123 141/137/122 123/127/112 87/108/93
f 72/75/60 102/94/79 142/140/125 121/141/126
f 102/94/79 76/89/74 108/142/127 142/140/125
f 142/140/125 108/142/127 88/104/89 124/125/110
f 121/141/126 142/140/125 124/125/110 89/123/108
f 74/77/62 93/76/61 143/143/128 110/139/124
f 93/76/61 72/75/60 121/141/126 143/143/128
f 143/143/128 121/141/126 89/123/108 125/120/105
f 110/139/124 143/143/128 125/120/105 90/119/104
f 76/89/74 99/88/73 144/144/129 108/142/127
f 99/88/73 78/83/68 119/138/123 144/144/129
f 144/144/129 119/138/123 87/108/93 126/105/90
f 108/142/127 144/144/129 126/105/90 88/104/89
